<?xml version="1.0" encoding="utf-8"?>
<!-- Generator: Adobe Illustrator 27.3.1, SVG Export Plug-In . SVG Version: 6.00 Build 0)  -->
<svg version="1.1" id="Calque_1" xmlns="http://www.w3.org/2000/svg" xmlns:xlink="http://www.w3.org/1999/xlink" x="0px" y="0px"
	 viewBox="0 0 64 64" style="enable-background:new 0 0 64 64;" xml:space="preserve">
<style type="text/css">
	.st0{fill:none;}
	.st1{fill:url(#SVGID_1_);stroke:#BFBFBF;stroke-miterlimit:10;}
	.st2{fill:#3F3F3F;}
	.st3{fill:url(#SVGID_00000110442817359709065000000015418235382871470210_);stroke:#BFBFBF;stroke-miterlimit:10;}
</style>
<g id="Layer_2">
	<g id="_64x64_EmptyBg">
		<rect y="0" class="st0" width="64" height="64"/>
	</g>
	<g id="Icons_64">
		<g id="Widget_Scrollbox">
			
				<linearGradient id="SVGID_1_" gradientUnits="userSpaceOnUse" x1="23.3" y1="785.87" x2="23.3" y2="832.7" gradientTransform="matrix(1 0 0 1 0 -778)">
				<stop  offset="0" style="stop-color:#666666"/>
				<stop  offset="9.000000e-02" style="stop-color:#757575"/>
				<stop  offset="0.28" style="stop-color:#909090"/>
				<stop  offset="0.48" style="stop-color:#A4A4A4"/>
				<stop  offset="0.67" style="stop-color:#AFAFAF"/>
				<stop  offset="0.88" style="stop-color:#B3B3B3"/>
			</linearGradient>
			<path class="st1" d="M10.6,6.9h28.9l0,0V57l0,0H10.6c-2,0-3.6-1.6-3.6-3.6l0,0v-43C7.2,8.5,8.8,6.9,10.6,6.9L10.6,6.9z"/>
			<polygon class="st2" points="21.5,24.7 21.5,36.2 11.5,30.4 			"/>
		</g>
		
			<linearGradient id="SVGID_00000147929722535208894570000007183855462515014283_" gradientUnits="userSpaceOnUse" x1="49.2" y1="785.87" x2="49.2" y2="832.7" gradientTransform="matrix(1 0 0 1 0 -778)">
			<stop  offset="0" style="stop-color:#666666"/>
			<stop  offset="9.000000e-02" style="stop-color:#757575"/>
			<stop  offset="0.28" style="stop-color:#909090"/>
			<stop  offset="0.48" style="stop-color:#A4A4A4"/>
			<stop  offset="0.67" style="stop-color:#AFAFAF"/>
			<stop  offset="0.88" style="stop-color:#B3B3B3"/>
		</linearGradient>
		<path style="fill:url(#SVGID_00000147929722535208894570000007183855462515014283_);stroke:#BFBFBF;stroke-miterlimit:10;" d="
			M45,6.9H57l0,0V57l0,0H45c-2,0-3.6-1.6-3.6-3.6l0,0v-43C41.5,8.5,43,6.9,45,6.9L45,6.9z"/>
		<path class="st2" d="M25.6,40.6c0-0.8-0.2-1.6,0.1-2.4c0.4-0.8,1.3-1.2,2.2-0.8c0.9,0.4,1.1,1.3,1.1,2.2c0,0.6-0.3,1.9,0.2,2.4
			c0.6,0.6,0.7-1,0.7-1.2c0-0.7,0-1.4,0-2.1c0-0.8,0-1.7,0-2.5c0-2.1-0.1-4.1,0-6.2c0-0.7,0.1-1.4,0.5-2c0.5-0.6,1.5-0.7,2.2-0.3
			c0.8,0.5,0.8,1.6,0.8,2.4c0,1.1,0,4.5,0,5.6c0.4-0.7,1.2-1,2-0.7c0.7,0.3,1,1.1,1.1,1.8c0.4-0.6,1.1-0.8,1.8-0.7
			c0.9,0.2,1.2,1,1.3,1.8c0.5-0.7,1.5-0.9,2.2-0.5c0.6,0.3,0.8,1,0.9,1.6c0.1,1.8,0,1.4,0,3.2c0,3.7-1.8,7.3-5.3,8.9
			c-2.9,1.3-6.2,0.6-8.4-1.5c-1.1-1-1.9-2.3-2.5-3.7C25.5,44.1,25.6,42.4,25.6,40.6"/>
		<polygon class="st2" points="44.5,36.2 44.5,24.7 54.5,30.4 		"/>
	</g>
</g>
</svg>
