<?xml version="1.0" encoding="utf-8"?>
<!-- Generator: Adobe Illustrator 27.3.1, SVG Export Plug-In . SVG Version: 6.00 Build 0)  -->
<svg version="1.1" id="Calque_1" xmlns="http://www.w3.org/2000/svg" xmlns:xlink="http://www.w3.org/1999/xlink" x="0px" y="0px"
	 viewBox="0 0 16 16" style="enable-background:new 0 0 16 16;" xml:space="preserve">
<style type="text/css">
	.st0{fill:#FFFFFF;}
	.st1{fill-rule:evenodd;clip-rule:evenodd;fill:#FFFFFF;}
	.st2{opacity:0.5;fill-rule:evenodd;clip-rule:evenodd;fill:#FFFFFF;}
</style>
<path class="st0" d="M5.8,0.7v7.4l-5-3.7L5.8,0.7z"/>
<path class="st0" d="M4.7,10c0-0.4-0.1-0.8,0.1-1.2c0.2-0.4,0.7-0.6,1.1-0.4C6.3,8.5,6.4,9,6.4,9.5c0,0.3-0.2,1,0.1,1.2
	c0.3,0.3,0.4-0.5,0.4-0.6c0-0.4,0-0.7,0-1.1c0-0.4,0-0.9,0-1.3c0-1.1-0.1-2.1,0-3.1c0-0.4,0.1-0.7,0.3-1c0.3-0.3,0.8-0.4,1.1-0.2
	c0.4,0.3,0.4,0.8,0.4,1.2c0,0.6,0,2.3,0,2.8c0.2-0.4,0.6-0.5,1-0.4C10,7.3,10.1,7.7,10.2,8c0.2-0.3,0.6-0.4,0.9-0.4
	c0.5,0.1,0.6,0.5,0.7,0.9c0.3-0.4,0.8-0.5,1.1-0.3c0.3,0.2,0.4,0.5,0.5,0.8c0.1,0.9,0,0.7,0,1.6c0,1.9-0.9,3.7-2.7,4.5
	c-1.5,0.7-3.1,0.3-4.2-0.8c-0.6-0.5-1-1.2-1.3-1.9C4.6,11.7,4.7,10.9,4.7,10"/>
<path class="st1" d="M14.6,12c-0.1,0.3-0.2,0.7-0.3,1h0.8v-1H14.6z"/>
<path class="st0" d="M9.9,5.7c0.4,0.2,0.6,0.7,0.7,1.1c0.2-0.4,0.7-0.5,1.1-0.4c0.2,0,0.3,0.1,0.4,0.2l2.8-2.1l-5-3.7L9.9,5.7
	C9.9,5.7,9.9,5.7,9.9,5.7z"/>
<g>
	<polygon class="st1" points="15.1,3.9 15.1,3 14.1,3 13.9,3 	"/>
</g>
<g>
	<polygon class="st2" points="1.8,3 1,3 1,3.6 	"/>
	<path class="st2" d="M2,12V6L1,5.3V12v1h1h2.3C4.1,12.7,4,12.3,4,12H2z"/>
</g>
</svg>
